<?xml version="1.0" encoding="UTF-8"?>
<svg width="569px" height="512px" viewBox="0 0 569 512" xmlns="http://www.w3.org/2000/svg">
    <g fill="#58C4DC" fill-rule="nonzero">
        <path d="M285.5,201 C255.4,201 231,225.4 231,255.5 C231,285.6 255.4,310 285.5,310 C315.6,310 340,285.6 340,255.5 C340,225.4 315.6,201 285.5,201"/>
        <path d="M569,256 C569,213.2 529.3,175.7 466.3,151 C467.1,145.4 467.9,139.9 468.4,134.5 C474.6,73 459.8,28.7 426.7,9.6 C389.7,-11.8 337.4,3.7 284.5,46 C231.6,3.7 179.3,-11.8 142.3,9.6 C109.2,28.7 94.4,73 100.6,134.5 C101.1,139.9 101.8,145.4 102.7,151 C39.6,175.7 0,213.2 0,256 C0,298.8 39.6,336.3 102.7,361 C101.8,366.6 101.1,372.1 100.6,377.5 C94.4,438.9 109.2,483.3 142.3,502.4 C153.6,508.9 166.5,512.2 179.6,512 C210.9,512 247.6,495.5 284.5,466 C321.4,495.5 358,512 389.4,512 C402.5,512.2 415.4,508.9 426.7,502.4 C459.8,483.3 474.6,438.9 468.4,377.5 C467.9,372.1 467.1,366.6 466.3,361 C529.4,336.3 569,298.8 569,256 M389.2,27.1 C397.6,26.9 405.9,28.9 413.2,33 C436.2,46.3 446.5,82.3 441.5,131.8 C441.2,135.1 440.8,138.6 440.3,142 C414.1,134.1 387.2,128.5 360,125.1 C343.5,103.2 325.2,82.8 305.2,64 C336.6,39.7 366,27.1 389.2,27.1 M378.4,310.2 C368.2,327.8 357.2,344.9 345.2,361.4 C325,363.5 304.8,364.5 284.5,364.5 C264.2,364.5 243.9,363.5 223.7,361.4 C211.8,344.9 200.8,327.8 190.7,310.2 C180.5,292.6 171.3,274.5 163,256 C171.3,237.5 180.5,219.4 190.7,201.8 C200.8,184.2 211.8,167.2 223.6,150.8 C243.8,148.6 264.1,147.6 284.5,147.6 C304.8,147.6 325,148.6 345.2,150.8 C357.1,167.1 368.1,184.2 378.3,201.8 C388.4,219.4 397.6,237.5 405.9,256 C397.6,274.5 388.4,292.6 378.3,310.2 M419.7,290.1 C426.1,307.5 431.3,325.3 435.4,343.3 C417.8,348.8 399.8,353.1 381.7,356.3 C388.6,345.9 395.3,335 401.7,323.8 C408.1,312.7 414.1,301.4 419.8,290.2 M246.4,390.4 C258.8,391.1 271.6,391.6 284.5,391.6 C297.4,391.6 310.2,391.1 322.7,390.4 C310.9,404.6 298.1,418 284.5,430.5 C271,418 258.2,404.6 246.4,390.4 M187.3,356.2 C169.1,353.1 151.2,348.8 133.6,343.3 C137.6,325.3 142.8,307.6 149.2,290.2 C154.8,301.4 160.7,312.7 167.2,323.8 C173.7,334.9 180.5,345.9 187.3,356.3 M149.2,221.8 C142.9,204.5 137.7,186.8 133.6,168.8 C151.2,163.4 169.1,159 187.2,155.8 C180.3,166.2 173.6,177 167.1,188.2 C160.6,199.4 154.7,210.5 149.1,221.8 M322.6,121.6 C310.1,120.8 297.4,120.4 284.4,120.4 C271.5,120.4 258.8,120.8 246.2,121.6 C258,107.4 270.8,94 284.4,81.4 C298,94 310.8,107.4 322.6,121.6 M401.7,188.2 C395.2,176.9 388.5,166.1 381.5,155.7 C399.7,158.8 417.7,163.2 435.4,168.7 C431.3,186.7 426.1,204.4 419.8,221.8 C414.2,210.5 408.3,199.4 401.8,188.2 M127.5,131.8 C122.4,82.3 132.8,46.3 155.8,33 C163.1,29 171.5,26.9 179.9,27.1 C203,27.1 232.4,39.7 263.8,64 C243.8,82.8 225.4,103.3 208.9,125.2 C181.8,128.5 154.9,134.1 128.7,142 C128.2,138.6 127.8,135.2 127.5,131.8 M98.5,182.1 C101.5,180.8 104.7,179.4 107.9,178.1 C114.2,204.7 122.8,230.8 133.5,256 C122.8,281.2 114.2,307.4 107.9,334.1 C56.7,313.1 27.1,284 27.1,256 C27.1,229.5 53.2,202.5 98.5,182.1 M155.8,479 C132.8,465.7 122.4,429.7 127.5,380.2 C127.8,376.8 128.3,373.4 128.7,370 C154.9,378 181.8,383.5 209,386.8 C225.4,408.8 243.8,429.2 263.8,448 C220.1,481.8 180.1,493 155.8,479 M441.5,380.2 C446.5,429.7 436.2,465.7 413.2,479 C388.9,493 349,481.8 305.3,448 C325.2,429.2 343.6,408.8 360,386.8 C387.2,383.5 414.1,378 440.3,370 C440.8,373.4 441.2,376.8 441.5,380.2 M461.2,334.1 C454.9,307.3 446.3,281.2 435.6,256 C446.3,230.7 454.9,204.6 461.2,177.9 C512.2,198.9 542,228 542,256 C542,284 512.3,313.1 461.2,334.1"/>
    </g>
</svg>